<?xml version="1.0" encoding="UTF-8"?>
<svg xmlns="http://www.w3.org/2000/svg" xmlns:xlink="http://www.w3.org/1999/xlink" viewBox="0 0 800 1000" width="800" height="1000" overflow="visible">
  <defs>
    <style>
      .cls-1 {
        fill: url(#linear-gradient);
      }

      .cls-1, .cls-2, .cls-3 {
        stroke-width: 0px;
      }

      .cls-4 {
        opacity: .9;
      }

      .cls-5 {
        letter-spacing: 0em;
      }

      .cls-6 {
        fill: #7dff95;
        font-size: 395px;
      }

      .cls-6, .cls-7 {
        font-family: THKrub-Bold, 'TH Krub', 'san-serif';
        font-weight: 700;
      }

      .cls-7 {
        font-size: 116px;
        stroke: #ff0;
        stroke-miterlimit: 10;
        stroke-width: 2px;
      }

      .cls-7, .cls-3 {
        fill: #ff0;
      }

      .cls-2 {
        fill: #fff;
      }
    </style>
    <linearGradient id="linear-gradient" x1="-63.36" y1="474.93" x2="886.62" y2="474.93" gradientTransform="translate(-63.23 886.62) rotate(-90)" gradientUnits="userSpaceOnUse">
      <stop offset=".28" stop-color="#6844d8"/>
      <stop offset=".39" stop-color="#6a45d4"/>
      <stop offset=".48" stop-color="#704ac9"/>
      <stop offset=".57" stop-color="#7b52b7"/>
      <stop offset=".66" stop-color="#8a5e9d"/>
      <stop offset=".75" stop-color="#9d6c7b"/>
      <stop offset=".83" stop-color="#b47e53"/>
      <stop offset=".91" stop-color="#ce9228"/>
    </linearGradient>
  </defs>
  <g id="base">
    <g class="cls-4">
      <path class="cls-1" d="M11.3,237.38c-7.57,13.82-9.42,29.92-10.29,47.04-1.88,111.48-.52,247.52-.64,359.17.78,36.99,0,69.21,32.75,92.56,14.72,11.67,43.77,28.35,64.95,41.06,80.77,47.75,169.15,100.74,250.55,148.47,12.55,7.19,24.02,13.57,36.84,18.75,29.92,13.16,54.8.6,81.13-14.13,28.13-15.96,55.76-32.72,84.88-49.92,62.11-36.81,135.73-80.54,195.45-116.04,26.34-16.66,52.46-29.23,65.89-53.25,6.75-13.23,8.6-27.98,9.49-44.09,2.1-111.91.57-248.55.73-360.94-.99-29.08-.01-51.35-13.26-72.45-8.3-12.14-20.27-21.14-33.65-29.97-95.46-58.5-213.42-127.56-308.47-183.52-46.8-27.3-66.12-26.34-111.73-.08-88.7,51.62-198.3,117.3-293.38,173.92-18.85,11.5-43.26,27.47-51.16,43.31l-.05.09Z"/>
    </g>
  </g>
  <g id="star">
    <g>
      <path class="cls-2" d="M350.01,243.98c1.53-8.29,2.96-15.53,4.17-21.68,9.31-47.22,8.82-48.73-26.14-81.15-4.68-4.34-10.2-9.45-16.45-15.4,8.36-1.11,15.68-1.99,21.91-2.74,47.78-5.74,49.08-6.67,69.1-49.94,2.68-5.79,5.84-12.62,9.56-20.4,3.64,7.61,6.74,14.3,9.37,19.99,20.22,43.67,21.51,44.61,68.85,50.28,6.34.76,13.8,1.65,22.36,2.79-6.11,5.81-11.52,10.83-16.12,15.09-35.29,32.73-35.78,34.24-26.54,81.02,1.24,6.26,2.69,13.64,4.25,22.12-7.42-4.02-13.86-7.61-19.33-10.67-20.96-11.69-31.48-17.56-42.85-17.56s-21.71,5.8-42.4,17.35c-5.58,3.11-12.14,6.78-19.73,10.88Z"/>
      <path class="cls-3" d="M412.16,64.37c1.76,3.77,3.37,7.24,4.84,10.4,10.43,22.52,15.66,33.83,25.86,41.28,10.23,7.47,23.26,9.03,46.93,11.87,3.59.43,7.53.9,11.83,1.44-3.04,2.84-5.84,5.45-8.4,7.82-18.2,16.88-27.33,25.35-31.27,37.35-3.95,12.03-1.4,24.91,3.22,48.3.7,3.54,1.47,7.44,2.29,11.7-3.64-2.01-6.98-3.88-10.03-5.57-21.72-12.11-32.61-18.19-45.29-18.19-12.63,0-24.07,6.39-44.84,17.98-3.15,1.76-6.62,3.7-10.42,5.79.79-4.09,1.53-7.84,2.2-11.26,4.8-24.35,7.21-36.57,3.34-48.6-3.88-12.05-13.51-20.98-30.99-37.18-2.65-2.46-5.56-5.16-8.73-8.12,4.13-.51,7.93-.97,11.39-1.39,24.64-2.96,37.01-4.44,47.25-11.84,10.26-7.42,15.78-19.33,25.79-40.96,1.52-3.28,3.19-6.89,5.02-10.81M412.16,41.2c-40.79,83.09-19.59,67.93-111.48,81,66.42,64.47,58.55,39.63,42.58,131.06,40.96-21.65,54.89-32.51,68.88-32.51,13.95,0,27.96,10.81,68.92,32.51-15.84-91.2-24.08-66.47,42.58-131.06-91.63-13.11-70.66,2.36-111.48-81h0Z"/>
    </g>
  </g>
  <g id="texts">
    <text class="cls-7" transform="translate(173.77 804.52) rotate(-.05) scale(1 1.12)"><tspan class="cls-5" x="0" y="0">LukeCreate</tspan><tspan x="428" y="0">d</tspan></text>
    <text class="cls-6" transform="translate(55.78 547.38) scale(.9 1.12)"><tspan x="0" y="0">myMY</tspan></text>
  </g>
</svg>